<svg width="172" height="69" viewBox="0 0 172 69" fill="none" xmlns="http://www.w3.org/2000/svg">
<path d="M10.413 31.8114L35.5134 4.9418L25.1003 32.5428L36.7956 36.9552L10.7597 63.4718L21.1728 35.8707L10.413 31.8114Z" fill="white"/>
<path d="M50.4544 41.6773V38.4773H54.7424V40.3653L55.7984 41.4213H62.4224L63.5104 40.3333V36.6213L62.4544 35.5653H53.9744L50.5184 32.1093V26.1893L53.9744 22.7333H64.0864L67.5424 26.1893V29.4213H63.2544V27.5013L62.1984 26.4453H55.8624L54.8064 27.5013V30.7973L55.8624 31.8533H64.3424L67.7984 35.3093V41.6133L64.2784 45.1333H53.9104L50.4544 41.6773ZM70.9894 41.4533V26.4133L74.6694 22.7333H85.6134L89.2294 26.3493V29.7733H84.8774V27.9493L83.3734 26.4453H76.9734L75.3414 28.0773V39.7893L76.9734 41.4213H83.3734L84.8774 39.9173V38.0933H89.2294V41.5173L85.6134 45.1333H74.6694L70.9894 41.4533ZM98.3939 22.7333H102.362L110.554 45.1333H106.138L104.314 40.1733H96.4419L94.6179 45.1333H90.2019L98.3939 22.7333ZM103.354 36.5893L100.378 28.0773H100.314L97.4339 36.5893H103.354ZM112.809 22.7333H117.161V41.4533H128.361V45.1333H112.809V22.7333ZM137.019 22.7333H140.987L149.179 45.1333H144.763L142.939 40.1733H135.067L133.243 45.1333H128.827L137.019 22.7333ZM141.979 36.5893L139.003 28.0773H138.939L136.059 36.5893H141.979ZM169.034 37.7093V45.1333H164.682V38.7013L162.762 36.5573H155.786V45.1333H151.434V22.7333H165.482L168.906 26.1893V32.9733L166.73 35.1813L169.034 37.7093ZM155.786 32.9733H163.498L164.618 31.8533V27.5013L163.498 26.3813H155.786V32.9733Z" fill="white"/>
</svg>
